<svg id="Icon_ionic-logo-facebook" data-name="Icon ionic-logo-facebook" xmlns="http://www.w3.org/2000/svg" width="25" height="24" viewBox="0 0 25 24">
  <path id="Icon_ionic-logo-facebook-2" data-name="Icon ionic-logo-facebook" d="M28.12,4.5H5.88A1.354,1.354,0,0,0,4.5,5.825v21.35A1.354,1.354,0,0,0,5.88,28.5H17V19H14.012V15.5H17V12.913c0-3.1,2.24-4.788,5.124-4.788,1.38,0,2.865.1,3.21.144v3.238h-2.3c-1.569,0-1.868.712-1.868,1.763V15.5H24.9L24.415,19H21.167v9.5H28.12a1.354,1.354,0,0,0,1.38-1.325V5.825A1.354,1.354,0,0,0,28.12,4.5Z" transform="translate(-4.5 -4.5)" fill="#aca8a8"/>
</svg>
