<svg id="Icon_ionic-logo-googleplus" data-name="Icon ionic-logo-googleplus" xmlns="http://www.w3.org/2000/svg" width="36" height="25" viewBox="0 0 36 25">
  <path id="Path_5" data-name="Path 5" d="M22.373,17.114l-.112-.537H11.25v4.916h6.377a5.8,5.8,0,0,1-5.913,4.877,6.429,6.429,0,0,1-4.8-1.94,7.8,7.8,0,0,1-2.032-5.4A7.831,7.831,0,0,1,6.82,13.694a6.326,6.326,0,0,1,4.83-1.948,5.819,5.819,0,0,1,4.085,1.618l3.375-3.658a10.962,10.962,0,0,0-7.573-3.167h0A11.177,11.177,0,0,0,3.262,10.2,13.364,13.364,0,0,0,0,19.039a13.225,13.225,0,0,0,3.136,8.689,11.485,11.485,0,0,0,8.641,3.811,10.248,10.248,0,0,0,7.755-3.551,13.118,13.118,0,0,0,2.981-8.643A15.65,15.65,0,0,0,22.373,17.114Z" transform="translate(0 -6.539)" fill="#aca8a8"/>
  <path id="Path_6" data-name="Path 6" d="M36,15.75H31.992V11.742H29.109V15.75H25.1v2.883h4.008v4.008h2.883V18.633H36Z" transform="translate(0 -5.64)" fill="#aca8a8"/>
</svg>
