<svg xmlns="http://www.w3.org/2000/svg" width="22.833" height="17.139" viewBox="0 0 22.833 17.139">
  <path id="Icon_payment-jcb" data-name="Icon payment-jcb" d="M8.582,35.3v-6a.67.67,0,0,1,.068.01,13,13,0,0,0,1.452.253,11.72,11.72,0,0,0,1.785.076,5.262,5.262,0,0,0,1.769-.316,2.253,2.253,0,0,0,.943-.645,1.84,1.84,0,0,0,.414-.964,4.86,4.86,0,0,0,.035-.591c0-1,0-2,0-3,0-.046,0-.092-.007-.14h-2.47v.123q0,1.593,0,3.186a1.4,1.4,0,0,1-.278.883,1.339,1.339,0,0,1-.818.488,2.734,2.734,0,0,1-.79.027,5.91,5.91,0,0,1-2.068-.6l-.038-.021V27.98q0-3.468,0-6.935a2.852,2.852,0,0,1,1.96-2.731,3.463,3.463,0,0,1,1.129-.145q.7.005,1.407.007l2.4,0h.129V18.3q0,7.056,0,14.112a2.819,2.819,0,0,1-.658,1.861,2.789,2.789,0,0,1-1.7.985,3.073,3.073,0,0,1-.53.042q-2.005.006-4.01,0H8.582Zm7.9-6.565c.015,0,.023,0,.027.007a3.782,3.782,0,0,0,1.575.717,8.6,8.6,0,0,0,2.036.18,10.654,10.654,0,0,0,1.875-.2c.207-.039.413-.084.619-.127.035-.008.07-.019.109-.029V28.081c-.044.02-.08.034-.115.051a5.906,5.906,0,0,1-1.429.49,4.508,4.508,0,0,1-1.169.087,2.383,2.383,0,0,1-.973-.257,1.654,1.654,0,0,1-.85-1.044,2.371,2.371,0,0,1,0-1.348A1.687,1.687,0,0,1,19.336,24.9a3,3,0,0,1,1.179-.133,5.536,5.536,0,0,1,2.131.594c.018.009.036.017.055.024a.111.111,0,0,0,.026,0v-1.2c-.1-.024-.2-.053-.3-.07-.438-.076-.875-.162-1.316-.218a9.539,9.539,0,0,0-1.7-.054,7.542,7.542,0,0,0-1.391.187,3.885,3.885,0,0,0-1.321.564c-.068.047-.134.1-.215.159v-.078c0-1.21,0-2.419,0-3.628a2.854,2.854,0,0,1,1.847-2.691,2.909,2.909,0,0,1,1.042-.185q2.02,0,4.041,0h.094c.005.029.011.051.013.073s0,.047,0,.07q0,7.026,0,14.051a2.9,2.9,0,0,1-.243,1.241A2.816,2.816,0,0,1,21.17,35.26a2.492,2.492,0,0,1-.479.044q-2.05.005-4.1,0h-.1c0-2.194,0-4.377,0-6.566Zm7.9-4.754c0-.039,0-.072,0-.1,0-.935,0-1.87,0-2.8a2.818,2.818,0,0,1,.983-2.2,2.7,2.7,0,0,1,1.5-.671,3.908,3.908,0,0,1,.461-.025q1.975,0,3.95,0H31.4c0,.047.005.083.005.119q0,7.057,0,14.113a2.8,2.8,0,0,1-.975,2.183,2.672,2.672,0,0,1-1.446.666,4.088,4.088,0,0,1-.53.036q-1.97.006-3.94,0h-.126V29.488h.314c.228,0,.456,0,.683,0q1.674,0,3.347,0a2.537,2.537,0,0,0,1-.175,1.51,1.51,0,0,0,.674-.522,1.266,1.266,0,0,0-.311-1.77,2.033,2.033,0,0,0-.842-.332c-.078-.013-.156-.022-.235-.038a2.422,2.422,0,0,0,.538-.176,1.246,1.246,0,0,0,.726-.94,1.2,1.2,0,0,0-.6-1.286A1.892,1.892,0,0,0,28.839,24q-.326-.02-.652-.02-1.834,0-3.669,0h-.127Zm1.4,4.6V27.1c.028,0,.053-.008.079-.008.522,0,1.044,0,1.566,0a.745.745,0,0,1,.216,1.463,1.029,1.029,0,0,1-.238.029c-.515,0-1.031,0-1.547,0-.022,0-.045,0-.077,0Zm0-2.367V24.86c.034,0,.063-.007.092-.007.465,0,.931,0,1.4,0a.722.722,0,0,1,.507.179.7.7,0,0,1,.175.747.647.647,0,0,1-.594.436c-.512.007-1.025,0-1.537,0a.247.247,0,0,1-.04-.007Z" transform="translate(-8.578 -18.167)" fill="#d41227"/>
</svg>
