<svg xmlns="http://www.w3.org/2000/svg" width="34.276" height="15.033" viewBox="0 0 34.276 15.033">
  <path id="Icon_payment-visa-electron" data-name="Icon payment-visa-electron" d="M16.55,30.976h1.6v.42H16.97l-.168.924h.924l-.084.42h-.924l-.084,1.008H17.81v.42h-1.68l.42-3.192Zm2.268,2.772h1.26l-.084.42h-1.68l.42-3.192h.5l-.42,2.773Zm2.1-2.772H22.6l-.084.42H21.339l-.084.924h.924l-.084.42h-.924L21,33.748h1.26l-.084.42H20.5l.42-3.192Zm2.52.42a1.525,1.525,0,0,1,1.092-.5,1.145,1.145,0,0,1,.84.336l-.252.42a.974.974,0,0,0-.672-.336q-1.008,0-1.176,1.26a1.183,1.183,0,0,0,.168.882.771.771,0,0,0,.672.378,1.21,1.21,0,0,0,.84-.42V34a1.362,1.362,0,0,1-.84.252q-1.43,0-1.26-1.68a1.967,1.967,0,0,1,.588-1.176Zm2.436-.42h2.352l-.084.42H27.135L26.8,34.168h-.5l.42-2.772h-.924l.084-.42Zm4.536.42a1,1,0,0,1-.084.882.982.982,0,0,1-.672.546l.756,1.344h-.5l-.756-1.344H28.9l-.168,1.344h-.42l.42-3.192h1.008a.655.655,0,0,1,.672.42Zm-.588.756q.42-.756-.168-.756h-.5L28.983,32.4h.5l.336-.252Zm4.033.42q-.336,1.682-1.6,1.68a1.158,1.158,0,0,1-.966-.5A1.561,1.561,0,0,1,31,32.572q.334-1.68,1.6-1.68,1.428,0,1.26,1.68Zm-.588-.924a.76.76,0,0,0-.672-.42q-1.008,0-1.176,1.344a1.318,1.318,0,0,0,.168.924.756.756,0,0,0,.672.42c.672,0,1.063-.448,1.176-1.344a1.325,1.325,0,0,0-.168-.924Zm3.865-.672-.42,3.192h-.42l-1.176-2.436-.42,2.436h-.42l.5-3.192h.42l1.092,2.352.42-2.352h.42Zm-2.184-4.2h.084v.084h-.084v.084h.084v.084h.084l-.084-.084.084-.084a.075.075,0,0,0-.084-.084h-.168v.252h.084v-.252ZM8.63,20.307a1.115,1.115,0,0,0-1.255-.9H2.889l-.033.217c3.079.787,5.607,2.46,6.745,5.624L8.63,20.307Zm1.255,6.427L9.6,25.244A6.719,6.719,0,0,0,5.985,21.6l2.259,8.536h2.929L15.543,19.4H12.6L9.886,26.734ZM17.7,30.147,19.442,19.4H16.664L14.923,30.147H17.7Zm7.581-10.928c-2.745,0-4.669,1.457-4.686,3.548-.017,1.541,1.372,2.394,2.426,2.913,1.088.519,1.44.87,1.44,1.338,0,.72-.87,1.038-1.657,1.038A5.266,5.266,0,0,1,20.2,27.5l-.368-.184-.386,2.409a8.1,8.1,0,0,0,3.1.57c2.912.017,4.8-1.44,4.837-3.665,0-1.222-.753-2.142-2.343-2.913-.97-.484-1.555-.837-1.555-1.338,0-.451.5-.921,1.59-.921a4.616,4.616,0,0,1,2.075.4l.251.133.384-2.326a6.9,6.9,0,0,0-2.493-.452Zm7.465.184a1.374,1.374,0,0,0-1.457.9l-4.117,9.84h2.912c.47-1.321.587-1.607.587-1.607H34.22s.084.368.334,1.607h2.578L34.89,19.4H32.748Zm-1.289,6.929s.234-.62,1.105-3c-.017.017.234-.62.368-1.021l.2.921c.519,2.561.637,3.1.637,3.1H31.458Z" transform="translate(-2.856 -19.219)" fill="#0a4d86"/>
</svg>
