<svg xmlns="http://www.w3.org/2000/svg" width="34.276" height="11.08" viewBox="0 0 34.276 11.08">
  <path id="Icon_payment-visa" data-name="Icon payment-visa" d="M8.63,22.284a1.115,1.115,0,0,0-1.255-.9H2.889l-.033.217c3.079.787,5.607,2.461,6.745,5.624L8.63,22.284ZM9.886,28.71,9.6,27.221a6.719,6.719,0,0,0-3.616-3.649l2.259,8.536h2.929l4.369-10.728H12.6L9.886,28.71ZM17.7,32.124l1.74-10.744H16.664L14.923,32.124H17.7ZM25.283,21.2c-2.745,0-4.669,1.457-4.686,3.548-.017,1.541,1.372,2.394,2.426,2.913,1.088.519,1.44.87,1.44,1.338,0,.72-.87,1.038-1.657,1.038A5.266,5.266,0,0,1,20.2,29.48l-.368-.184-.385,2.41a8.1,8.1,0,0,0,3.1.57c2.912.017,4.8-1.44,4.837-3.665,0-1.222-.753-2.142-2.343-2.913-.97-.484-1.555-.837-1.555-1.338,0-.451.5-.921,1.59-.921a4.616,4.616,0,0,1,2.075.4l.251.133.384-2.326a6.9,6.9,0,0,0-2.494-.452Zm7.465.184a1.374,1.374,0,0,0-1.457.9l-4.117,9.84h2.912c.47-1.321.587-1.607.587-1.607H34.22s.084.368.334,1.607h2.578L34.89,21.38H32.748Zm-1.289,6.929s.234-.62,1.105-3c-.017.017.234-.62.368-1.021l.2.921c.519,2.561.637,3.1.637,3.1H31.458Z" transform="translate(-2.856 -21.195)" fill="#171e6f"/>
</svg>
