<svg xmlns="http://www.w3.org/2000/svg" width="28.564" height="17.138" viewBox="0 0 28.564 17.138">
  <path id="Icon_payment-maestro" data-name="Icon payment-maestro" d="M25.707,18.166a8.535,8.535,0,0,0-5.713,2.184,8.569,8.569,0,1,0,0,12.771,8.569,8.569,0,1,0,5.713-14.954ZM11.816,28.892l.651-3.418-1.546,3.418H9.944l-.163-3.418-.651,3.418H8.154l.814-4.476h1.709l.081,2.767,1.221-2.767h1.79l-.9,4.476H11.816Zm4.964-1.953-.244,1.3v.244l-.081.163v.244h-.9v-.407a1.268,1.268,0,0,1-1.139.488q-.976,0-.977-1.058,0-1.383,1.872-1.383a1.156,1.156,0,0,1,.488.081v-.244c0-.216-.217-.326-.651-.326a2.808,2.808,0,0,0-.9.081h-.163l-.081.081.081-.814a4.8,4.8,0,0,1,1.3-.244q1.465,0,1.465,1.058a3.829,3.829,0,0,1-.081.733Zm3.255,1.871a4.538,4.538,0,0,1-1.058.163q-1.873,0-1.872-1.627,0-2.2,1.872-2.2,1.465,0,1.465,1.3a3.922,3.922,0,0,1-.081.9h-2.2v.163c0,.435.3.651.9.651a2.518,2.518,0,0,0,1.139-.244l-.163.895Zm3.255-2.767h-.814q-.488,0-.488.244t.488.407a1.1,1.1,0,0,1,.732,1.058q0,1.221-1.709,1.221h-.244a.741.741,0,0,0-.326-.081H20.6l-.163-.081H20.36L20.523,28a7.884,7.884,0,0,0,.977.163q.65,0,.651-.326c0-.163-.163-.3-.488-.407q-.9-.407-.9-1.058,0-1.221,1.709-1.221c.053,0,.2.014.448.041a5.114,5.114,0,0,0,.529.041l-.163.813Zm1.872,2.767a4.823,4.823,0,0,1-.814.163.719.719,0,0,1-.814-.814v-.326l.081-.326v-.326l.57-2.767h1.058l-.163.814h.57l-.163.9h-.57l-.244,1.546a.235.235,0,0,0-.081.163c0,.163.135.244.407.244A.471.471,0,0,0,25.325,28l-.163.814Zm1.465.082H25.487l.651-3.662H27.2l-.163.57a1.345,1.345,0,0,1,.977-.57h.244l.081.081-.407.977h-.244q-.569,0-1.057,2.6Zm5.127-1.628a1.865,1.865,0,0,1-2.116,1.709q-1.791,0-1.79-1.709a2.046,2.046,0,0,1,.61-1.505,2.147,2.147,0,0,1,1.587-.61q1.709,0,1.709,1.627v.488Zm-17.252.57c0,.217.135.326.407.326q.732,0,.732-.9H15.4c-.6,0-.9.191-.9.57Zm4.964-1.383a.432.432,0,0,0-.488-.488.727.727,0,0,0-.732.651h1.221v-.162Zm10.579-.407q-.9,0-.9,1.221,0,.814.57.814.65,0,.9-.9v-.407c0-.488-.191-.732-.57-.732Z" transform="translate(-5.713 -18.166)" fill="#171e6f"/>
</svg>
