<svg xmlns="http://www.w3.org/2000/svg" width="24.911" height="25.3" viewBox="0 0 24.911 25.3">
  <g id="Icon_feather-phone" data-name="Icon feather-phone" transform="translate(1.5 1.5)">
    <path id="Icon_feather-phone-2" data-name="Icon feather-phone" d="M25.077,19.694v3.357a2.254,2.254,0,0,1-.714,1.658,2.182,2.182,0,0,1-1.688.58,21.586,21.586,0,0,1-9.507-3.435,21.653,21.653,0,0,1-6.61-6.713,22.368,22.368,0,0,1-3.382-9.7,2.26,2.26,0,0,1,.567-1.71A2.188,2.188,0,0,1,5.369,3h3.3a2.214,2.214,0,0,1,2.2,1.925,14.552,14.552,0,0,0,.771,3.144,2.263,2.263,0,0,1-.5,2.361l-1.4,1.421a17.767,17.767,0,0,0,6.61,6.713l1.4-1.421a2.179,2.179,0,0,1,2.324-.5,13.966,13.966,0,0,0,3.1.783A2.228,2.228,0,0,1,25.077,19.694Z" transform="translate(-3.168 -3)" fill="#aca8a8" stroke="#292727" stroke-linecap="round" stroke-linejoin="round" stroke-width="3"/>
  </g>
</svg>
