<svg xmlns="http://www.w3.org/2000/svg" width="20.759" height="26" viewBox="0 0 20.759 26">
  <path id="Icon_simple-tiktok" data-name="Icon simple-tiktok" d="M13.271.022C14.576,0,15.87.011,17.164,0a7.059,7.059,0,0,0,1.742,4.517,6.746,6.746,0,0,0,4.221,1.939v4.366a9.947,9.947,0,0,1-4.182-1.051,12.088,12.088,0,0,1-1.613-1.007c-.01,3.163.01,6.327-.02,9.479a8.762,8.762,0,0,1-1.344,4.268,7.283,7.283,0,0,1-5.884,3.477,6.805,6.805,0,0,1-4.062-1.116,8.26,8.26,0,0,1-3.634-6.186c-.02-.542-.03-1.083-.01-1.614A8.381,8.381,0,0,1,4.948,11.7a7,7,0,0,1,6.123-1.863c.02,1.6-.04,3.207-.04,4.81a3.244,3.244,0,0,0-3.007.4,3.734,3.734,0,0,0-1.354,1.9,4.66,4.66,0,0,0-.139,1.744A3.475,3.475,0,0,0,10.016,21.8a3.306,3.306,0,0,0,2.758-1.744,2.633,2.633,0,0,0,.408-1.148c.1-1.939.06-3.867.07-5.807.01-4.366-.01-8.721.02-13.076Z" transform="translate(-2.369)" fill="#aca8a8"/>
</svg>
