<svg id="Icon_ionic-logo-twitter" data-name="Icon ionic-logo-twitter" xmlns="http://www.w3.org/2000/svg" width="25" height="24" viewBox="0 0 25 24">
  <path id="Icon_ionic-logo-twitter-2" data-name="Icon ionic-logo-twitter" d="M26.413,7.344a9.172,9.172,0,0,1-2.946.956,6,6,0,0,0,2.257-3.35,9.312,9.312,0,0,1-3.258,1.469A4.8,4.8,0,0,0,18.721,4.5c-2.834,0-5.128,2.712-5.128,6.056a6.945,6.945,0,0,0,.132,1.381A13.949,13.949,0,0,1,3.151,5.606,6.91,6.91,0,0,0,2.457,8.65a6.414,6.414,0,0,0,2.289,5.044,4.445,4.445,0,0,1-2.331-.756v.075c0,2.938,1.769,5.381,4.116,5.937a4.429,4.429,0,0,1-1.351.212,4.129,4.129,0,0,1-.964-.112A5.326,5.326,0,0,0,9.01,23.256,9.342,9.342,0,0,1,2.637,25.85a8.835,8.835,0,0,1-1.224-.087A12.815,12.815,0,0,0,9.264,28.5c9.446,0,14.606-9.231,14.606-17.238,0-.262-.005-.525-.016-.781A11.678,11.678,0,0,0,26.413,7.344Z" transform="translate(-1.413 -4.5)" fill="#aca8a8"/>
</svg>
