<svg id="Icon_ionic-logo-github" data-name="Icon ionic-logo-github" xmlns="http://www.w3.org/2000/svg" width="21.91" height="19.696" viewBox="0 0 21.91 19.696">
  <path id="Icon_ionic-logo-github-2" data-name="Icon ionic-logo-github" d="M13.2,2.25c-6.05,0-10.955,4.524-10.955,10.1a10.211,10.211,0,0,0,7.492,9.58.952.952,0,0,0,.186.018.5.5,0,0,0,.562-.5c0-.242-.01-.875-.015-1.719a5.546,5.546,0,0,1-1.105.119,2.52,2.52,0,0,1-2.587-1.473,2.756,2.756,0,0,0-1.218-1.477c-.954-.6,0-.62.068-.62h0a2.336,2.336,0,0,1,1.677,1.046,2.193,2.193,0,0,0,1.937,1.1,3.363,3.363,0,0,0,1.252-.264,2.1,2.1,0,0,1,.694-1.35c-2.431-.255-4.988-1.121-4.988-4.99A3.734,3.734,0,0,1,7.336,9.113,3.369,3.369,0,0,1,7.444,6.44a1.009,1.009,0,0,1,.245-.022,5.558,5.558,0,0,1,2.768,1.06,11.287,11.287,0,0,1,5.487,0,5.558,5.558,0,0,1,2.768-1.06,1.009,1.009,0,0,1,.245.022,3.369,3.369,0,0,1,.108,2.673,3.749,3.749,0,0,1,1.125,2.708c0,3.878-2.563,4.731-5,4.981a2.319,2.319,0,0,1,.743,1.869c0,1.35-.015,2.44-.015,2.77a.5.5,0,0,0,.558.506,1.049,1.049,0,0,0,.2-.018,10.209,10.209,0,0,0,7.492-9.58C24.16,6.774,19.254,2.25,13.2,2.25Z" transform="translate(-2.25 -2.25)" fill="#aca8a8"/>
</svg>
